<svg xmlns="http://www.w3.org/2000/svg" width="1500" height="900" viewBox="0 0 1500 900">
<style>.title{font:700 30px 'Helvetica Neue',Arial,sans-serif;fill:#0f172a;}.axis{font:500 14px 'Helvetica Neue',Arial,sans-serif;fill:#334155;}.tick{font:500 12px 'Helvetica Neue',Arial,sans-serif;fill:#475569;}.label{font:600 13px 'Helvetica Neue',Arial,sans-serif;fill:#111827;}.value{font:600 12px 'Helvetica Neue',Arial,sans-serif;fill:#0f172a;}.subtitle{font:500 13px 'Helvetica Neue',Arial,sans-serif;fill:#64748b;}</style>
<rect x="0" y="0" width="100%" height="100%" fill="#ffffff"/>
<text class="title" x="120" y="52">Chart 8.6 Mean Layout Time by Tool</text>
<text class="subtitle" x="120" y="78">Derived from current quantitative tables (A/B/C x Small/Medium/Large).</text>
<line x1="120" y1="710.00" x2="1420" y2="710.00" stroke="#e2e8f0" />
<text class="tick" x="110" y="714.00" text-anchor="end">0</text>
<line x1="120" y1="590.00" x2="1420" y2="590.00" stroke="#e2e8f0" />
<text class="tick" x="110" y="594.00" text-anchor="end">405</text>
<line x1="120" y1="470.00" x2="1420" y2="470.00" stroke="#e2e8f0" />
<text class="tick" x="110" y="474.00" text-anchor="end">810</text>
<line x1="120" y1="350.00" x2="1420" y2="350.00" stroke="#e2e8f0" />
<text class="tick" x="110" y="354.00" text-anchor="end">1214</text>
<line x1="120" y1="230.00" x2="1420" y2="230.00" stroke="#e2e8f0" />
<text class="tick" x="110" y="234.00" text-anchor="end">1619</text>
<line x1="120" y1="110.00" x2="1420" y2="110.00" stroke="#e2e8f0" />
<text class="tick" x="110" y="114.00" text-anchor="end">2024</text>
<line x1="120" y1="710" x2="1420" y2="710" stroke="#475569" stroke-width="1.2"/>
<line x1="120" y1="110" x2="120" y2="710" stroke="#475569" stroke-width="1.2"/>
<rect x="146.00" y="420.68" width="186.33" height="289.32" fill="#0f766e" rx="4"/>
<text class="value" x="239.17" y="412.68" text-anchor="middle">976</text>
<text class="label" x="239.17" y="734.00" text-anchor="middle" transform="rotate(-20 239.17 734.00)">This system</text>
<rect x="358.33" y="246.91" width="186.33" height="463.09" fill="#1d4ed8" rx="4"/>
<text class="value" x="451.50" y="238.91" text-anchor="middle">1562</text>
<text class="label" x="451.50" y="734.00" text-anchor="middle" transform="rotate(-20 451.50 734.00)">WebVOWL</text>
<rect x="570.67" y="174.29" width="186.33" height="535.71" fill="#7c3aed" rx="4"/>
<text class="value" x="663.83" y="166.29" text-anchor="middle">1807</text>
<text class="label" x="663.83" y="734.00" text-anchor="middle" transform="rotate(-20 663.83 734.00)">LodLive</text>
<rect x="783.00" y="319.21" width="186.33" height="390.79" fill="#d97706" rx="4"/>
<text class="value" x="876.17" y="311.21" text-anchor="middle">1318</text>
<text class="label" x="876.17" y="734.00" text-anchor="middle" transform="rotate(-20 876.17 734.00)">GraphDB Visual Graph</text>
<rect x="995.33" y="207.55" width="186.33" height="502.45" fill="#b91c1c" rx="4"/>
<text class="value" x="1088.50" y="199.55" text-anchor="middle">1695</text>
<text class="label" x="1088.50" y="734.00" text-anchor="middle" transform="rotate(-20 1088.50 734.00)">Protege (OntoGraf)</text>
<rect x="1207.67" y="283.47" width="186.33" height="426.53" fill="#374151" rx="4"/>
<text class="value" x="1300.83" y="275.47" text-anchor="middle">1439</text>
<text class="label" x="1300.83" y="734.00" text-anchor="middle" transform="rotate(-20 1300.83 734.00)">Ontodia</text>
<text class="axis" x="35" y="410.00" transform="rotate(-90 35 410.00)">Layout time (ms)</text>
</svg>