<svg xmlns="http://www.w3.org/2000/svg" width="1600" height="920" viewBox="0 0 1600 920">
<style>.title{font:700 30px 'Helvetica Neue',Arial,sans-serif;fill:#0f172a;}.subtitle{font:500 14px 'Helvetica Neue',Arial,sans-serif;fill:#64748b;}.tick{font:500 12px 'Helvetica Neue',Arial,sans-serif;fill:#475569;}.label{font:600 12px 'Helvetica Neue',Arial,sans-serif;fill:#111827;}.value{font:600 12px 'Helvetica Neue',Arial,sans-serif;fill:#111827;}.axis{font:600 14px 'Helvetica Neue',Arial,sans-serif;fill:#334155;}</style>
<rect x="0" y="0" width="100%" height="100%" fill="#ffffff"/>
<text class="title" x="120" y="52">Chart EV-2 Node Density by Dataset and Size</text>
<text class="subtitle" x="120" y="80">Measured values from 5 runs per dataset-size tier.</text>
<line x1="120" y1="710.00" x2="1520" y2="710.00" stroke="#e2e8f0"/>
<text class="tick" x="110" y="714.00" text-anchor="end">0.000</text>
<line x1="120" y1="591.00" x2="1520" y2="591.00" stroke="#e2e8f0"/>
<text class="tick" x="110" y="595.00" text-anchor="end">1.494</text>
<line x1="120" y1="472.00" x2="1520" y2="472.00" stroke="#e2e8f0"/>
<text class="tick" x="110" y="476.00" text-anchor="end">2.987</text>
<line x1="120" y1="353.00" x2="1520" y2="353.00" stroke="#e2e8f0"/>
<text class="tick" x="110" y="357.00" text-anchor="end">4.481</text>
<line x1="120" y1="234.00" x2="1520" y2="234.00" stroke="#e2e8f0"/>
<text class="tick" x="110" y="238.00" text-anchor="end">5.974</text>
<line x1="120" y1="115.00" x2="1520" y2="115.00" stroke="#e2e8f0"/>
<text class="tick" x="110" y="119.00" text-anchor="end">7.468</text>
<line x1="120" y1="115" x2="120" y2="710" stroke="#475569" stroke-width="1.3"/>
<line x1="120" y1="710" x2="1520" y2="710" stroke="#475569" stroke-width="1.3"/>
<rect x="138.00" y="192.61" width="135.56" height="517.39" fill="#0f766e" rx="4"/>
<text class="value" x="205.78" y="184.61" text-anchor="middle">6.494</text>
<text class="label" x="205.78" y="734.00" text-anchor="middle" transform="rotate(-18 205.78 734.00)">A-S</text>
<rect x="291.56" y="556.64" width="135.56" height="153.36" fill="#0f766e" rx="4"/>
<text class="value" x="359.33" y="548.64" text-anchor="middle">1.925</text>
<text class="label" x="359.33" y="734.00" text-anchor="middle" transform="rotate(-18 359.33 734.00)">A-M</text>
<rect x="445.11" y="658.03" width="135.56" height="51.97" fill="#0f766e" rx="4"/>
<text class="value" x="512.89" y="650.03" text-anchor="middle">0.652</text>
<text class="label" x="512.89" y="734.00" text-anchor="middle" transform="rotate(-18 512.89 734.00)">A-L</text>
<rect x="598.67" y="278.64" width="135.56" height="431.36" fill="#1d4ed8" rx="4"/>
<text class="value" x="666.44" y="270.64" text-anchor="middle">5.414</text>
<text class="label" x="666.44" y="734.00" text-anchor="middle" transform="rotate(-18 666.44 734.00)">B-S</text>
<rect x="752.22" y="613.43" width="135.56" height="96.57" fill="#1d4ed8" rx="4"/>
<text class="value" x="820.00" y="605.43" text-anchor="middle">1.212</text>
<text class="label" x="820.00" y="734.00" text-anchor="middle" transform="rotate(-18 820.00 734.00)">B-M</text>
<rect x="905.78" y="672.06" width="135.56" height="37.94" fill="#1d4ed8" rx="4"/>
<text class="value" x="973.56" y="664.06" text-anchor="middle">0.476</text>
<text class="label" x="973.56" y="734.00" text-anchor="middle" transform="rotate(-18 973.56 734.00)">B-L</text>
<rect x="1059.33" y="358.38" width="135.56" height="351.62" fill="#d97706" rx="4"/>
<text class="value" x="1127.11" y="350.38" text-anchor="middle">4.413</text>
<text class="label" x="1127.11" y="734.00" text-anchor="middle" transform="rotate(-18 1127.11 734.00)">C-S</text>
<rect x="1212.89" y="609.25" width="135.56" height="100.75" fill="#d97706" rx="4"/>
<text class="value" x="1280.67" y="601.25" text-anchor="middle">1.264</text>
<text class="label" x="1280.67" y="734.00" text-anchor="middle" transform="rotate(-18 1280.67 734.00)">C-M</text>
<rect x="1366.44" y="679.98" width="135.56" height="30.02" fill="#d97706" rx="4"/>
<text class="value" x="1434.22" y="671.98" text-anchor="middle">0.377</text>
<text class="label" x="1434.22" y="734.00" text-anchor="middle" transform="rotate(-18 1434.22 734.00)">C-L</text>
<text class="axis" x="34" y="412.50" transform="rotate(-90 34 412.50)">Density (x10^-6 nodes/px^2)</text>
</svg>